# xmcd
#
# Track frame offsets: 
#        150
#        13053
#        23482
#        35971
#        49630
#        65308
#        76424
#        89073
#        100340
#        115980
#        126977
#        139468
#        152194
#        162883
#        173835
#        185923
#        200692
#        213850
#        225654
#        242992
#
# Disc length: 3415 seconds
#
# Revision: 0
# Processed by: cddbd v1.5.2PL0 Copyright (c) Steve Scherf et al.
# Submitted via: ExactAudioCopy v1.0b1
#
DISCID=230d5514
DTITLE=Various Artist - Heart of Texas Records 30th Anniversary Collection [D
DTITLE=isc 2]
DYEAR=2019
DGENRE=Country
TTITLE0=Loretta Lynn - It Wasn't God Who Made Honky Tonk Angels
TTITLE1=Landon Dodd - Face The Music
TTITLE2=Darrell McCall - Fast As I Can Crawl
TTITLE3=Dottsy - After Sweet Memories, Play Born To Lose Again
TTITLE4=Floyd Tillman and Connie Smith - I Love You So Much It Hurts Me
TTITLE5=Ferlin Husky - I Feel Better All Over
TTITLE6=Tony Booth - Your Still In These Crazy Dreams Of Mine
TTITLE7=George Hamilton IV - West Texas Highway
TTITLE8=Diane McCall - Baby's Not Home
TTITLE9=Curtis Potter - Sittin and Thinkin
TTITLE10=Bobby G Rice - Pick Me Up On Your Way Down
TTITLE11=Johnny Bush - You Lied To Me
TTITLE12=Norma Jean - Satin Sheets
TTITLE13=Bobby Lewis - Doggone This Heartache
TTITLE14=Mona McCall - Amigos Guitar
TTITLE15=Dallas Wayne - See The Big Man Cry
TTITLE16=Tommy Hooker - Fraulein
TTITLE17=Mary Lou Turner - Since I Met You Baby
TTITLE18=Amber Digby - I'm Not Your Kind Of Girl
TTITLE19=Joe Paul Nichols and Jimmy C Newman - Louisiana Man
EXTD=
EXTT0=
EXTT1=
EXTT2=
EXTT3=
EXTT4=
EXTT5=
EXTT6=
EXTT7=
EXTT8=
EXTT9=
EXTT10=
EXTT11=
EXTT12=
EXTT13=
EXTT14=
EXTT15=
EXTT16=
EXTT17=
EXTT18=
EXTT19=
PLAYORDER=
